<?xml version="1.0" standalone="no"?>
<!DOCTYPE svg PUBLIC "-//W3C//DTD SVG 20010904//EN"
 "http://www.w3.org/TR/2001/REC-SVG-20010904/DTD/svg10.dtd">
<svg version="1.0" xmlns="http://www.w3.org/2000/svg"
 width="512.000000pt" height="512.000000pt" viewBox="0 0 512.000000 512.000000"
 preserveAspectRatio="xMidYMid meet">
<metadata>
Created by potrace 1.11, written by Peter Selinger 2001-2013
</metadata>
<g transform="translate(0.000000,512.000000) scale(0.100000,-0.100000)"
fill="#000000" stroke="none">
<path d="M1633 5002 c-12 -9 -27 -30 -32 -45 -8 -19 -11 -341 -11 -985 l-1
-957 -67 -30 c-107 -48 -211 -121 -302 -214 -213 -215 -311 -470 -297 -771 10
-201 62 -360 174 -528 l55 -84 -53 -54 c-30 -29 -58 -54 -63 -54 -5 0 -31 20
-57 45 -45 42 -65 50 -114 45 -31 -2 -800 -774 -833 -835 -22 -42 -27 -63 -27
-130 0 -68 4 -89 28 -137 33 -67 80 -112 155 -146 45 -20 65 -24 130 -20 53 2
91 10 122 25 32 16 163 141 444 422 l399 399 -6 43 c-4 33 -16 52 -53 91 l-49
48 60 60 60 60 65 -46 c452 -321 1091 -218 1422 228 l50 68 1111 0 c1039 0
1113 2 1133 18 12 9 27 27 33 39 8 16 11 484 11 1703 0 1813 3 1722 -49 1750
-13 7 -572 10 -1718 10 -1593 0 -1699 -2 -1720 -18z m3285 -1739 l-3 -1558
-994 -3 -993 -2 6 22 c49 174 62 292 46 430 -39 337 -225 624 -511 790 -170
98 -351 143 -551 136 l-118 -4 0 873 0 873 1560 0 1560 0 -2 -1557z m-2788
-408 c156 -37 273 -100 387 -209 163 -154 246 -334 259 -561 7 -111 -16 -252
-54 -339 l-21 -46 -450 0 -451 0 0 579 c0 544 1 580 18 584 43 11 251 6 312
-8z m-538 -681 l3 -616 33 -29 32 -29 458 0 457 -1 -66 -62 c-102 -95 -209
-153 -360 -194 -99 -27 -310 -25 -412 5 -290 83 -513 309 -588 597 -29 112
-29 289 0 400 42 160 127 302 245 412 56 53 166 130 188 132 4 1 9 -276 10
-615z m-629 -1122 l67 -67 -338 -337 c-185 -185 -347 -339 -360 -343 -30 -9
-89 12 -107 38 -8 12 -15 39 -15 61 0 39 7 47 337 378 186 186 340 338 343
338 3 0 36 -30 73 -68z"/>
<path d="M2008 4611 l-33 -29 -3 -334 c-4 -358 0 -392 45 -427 25 -20 38 -21
380 -21 l355 0 34 34 34 34 0 346 c0 369 -3 391 -49 416 -13 6 -150 10 -375
10 l-356 0 -32 -29z m602 -386 l0 -215 -215 0 -215 0 0 215 0 215 215 0 215 0
0 -215z"/>
<path d="M3928 4611 l-33 -29 -3 -291 -3 -291 -284 0 -285 0 -32 -29 -33 -29
-3 -334 c-4 -358 0 -392 45 -427 25 -20 38 -21 380 -21 l355 0 34 34 34 34 0
286 0 286 286 0 286 0 34 34 34 34 0 347 c0 360 -1 373 -44 407 -19 16 -55 18
-378 18 l-358 0 -32 -29z m602 -386 l0 -215 -215 0 -215 0 0 215 0 215 215 0
215 0 0 -215z m-640 -640 l0 -215 -215 0 -215 0 0 215 0 215 215 0 215 0 0
-215z"/>
<path d="M3288 2691 l-33 -29 -3 -334 c-4 -358 0 -392 45 -427 25 -20 38 -21
380 -21 l355 0 34 34 34 34 0 347 c0 360 -1 373 -44 407 -19 16 -55 18 -378
18 l-358 0 -32 -29z m602 -386 l0 -215 -215 0 -215 0 0 215 0 215 215 0 215 0
0 -215z"/>
<path d="M1995 2741 c-30 -13 -62 -53 -68 -85 -19 -109 99 -182 174 -107 24
25 29 37 29 80 0 41 -5 56 -27 81 -30 32 -75 45 -108 31z"/>
<path d="M1973 2400 c-48 -29 -55 -69 -51 -314 3 -232 6 -243 66 -272 43 -20
85 -11 117 28 l25 30 0 239 c0 146 -4 248 -10 260 -13 23 -61 49 -92 49 -13 0
-37 -9 -55 -20z"/>
</g>
</svg>
